<svg width="20" height="33" viewBox="0 0 20 33" fill="none" xmlns="http://www.w3.org/2000/svg">
<path d="M7.51841 16.5959C7.51841 14.5216 5.83533 12.84 3.7592 12.84C1.68305 12.84 0 14.5216 0 16.5959V29.066C0 31.1404 1.68305 32.8219 3.7592 32.8219C5.83533 32.8219 7.51841 31.1404 7.51841 29.066V16.5959Z" fill="#119AA2"/>
<path d="M19.6047 4.5779C19.6047 2.50355 17.9216 0.82196 15.8454 0.82196C13.7693 0.82196 12.0862 2.50355 12.0862 4.5779V29.0612C12.0862 31.1355 13.7693 32.8172 15.8454 32.8172C17.9216 32.8172 19.6047 31.1355 19.6047 29.0612V4.5779Z" fill="#119AA2"/>
<path d="M5.5479 13.7877L5.54357 13.7897C5.10099 13.9979 4.91115 14.5251 5.11947 14.9672L12.8835 31.4448C13.0918 31.8869 13.6195 32.0766 14.062 31.8685L14.0664 31.8664C14.5089 31.6582 14.6988 31.1311 14.4904 30.6889L6.72644 14.2114C6.51808 13.7692 5.99044 13.5795 5.5479 13.7877Z" fill="#119AA2"/>
</svg>
