<svg width="399" height="89" viewBox="0 0 399 89" fill="none" xmlns="http://www.w3.org/2000/svg">
<path d="M88.901 73.462C85.051 73.462 81.9966 72.538 79.738 70.69C77.5306 68.7907 76.427 66.2497 76.427 63.067V62.374C76.427 61.8607 76.6836 61.604 77.197 61.604H82.664C83.1773 61.604 83.434 61.8607 83.434 62.374V62.913C83.434 64.299 83.973 65.4797 85.051 66.455C86.129 67.379 87.4636 67.841 89.055 67.841C90.595 67.841 91.827 67.379 92.751 66.455C93.7263 65.531 94.214 64.3503 94.214 62.913C94.214 61.7837 93.8803 60.834 93.213 60.064C92.5456 59.294 91.75 58.7037 90.826 58.293C89.9533 57.831 88.593 57.215 86.745 56.445C84.743 55.5723 83.0746 54.7253 81.74 53.904C80.4566 53.0827 79.3016 51.902 78.275 50.362C77.2483 48.822 76.735 46.8713 76.735 44.51C76.735 41.0193 77.813 38.2987 79.969 36.348C82.1763 34.3973 85.128 33.422 88.824 33.422C92.6226 33.422 95.6 34.423 97.756 36.425C99.9633 38.427 101.067 41.1477 101.067 44.587V44.818C101.067 45.3313 100.81 45.588 100.297 45.588H94.984C94.4706 45.588 94.214 45.3313 94.214 44.818V44.279C94.214 42.893 93.7263 41.7123 92.751 40.737C91.7756 39.7617 90.518 39.274 88.978 39.274C87.3866 39.274 86.129 39.7617 85.205 40.737C84.281 41.7123 83.819 42.893 83.819 44.279C83.819 45.357 84.127 46.2553 84.743 46.974C85.359 47.6927 86.1033 48.283 86.976 48.745C87.8486 49.1557 89.2346 49.7717 91.134 50.593C93.2386 51.517 94.984 52.4153 96.37 53.288C97.756 54.1093 98.9623 55.29 99.989 56.83C101.067 58.37 101.606 60.295 101.606 62.605C101.606 65.9417 100.451 68.5853 98.141 70.536C95.8823 72.4867 92.8023 73.462 88.901 73.462ZM123.375 34.577C123.375 34.0637 123.632 33.807 124.145 33.807H129.997C130.511 33.807 130.767 34.0637 130.767 34.577V72.23C130.767 72.7433 130.511 73 129.997 73H124.145C123.632 73 123.375 72.7433 123.375 72.23V69.997C123.375 69.843 123.324 69.766 123.221 69.766C123.17 69.766 123.093 69.8173 122.99 69.92C121.45 72.3327 118.986 73.539 115.598 73.539C112.518 73.539 110.029 72.615 108.129 70.767C106.23 68.8677 105.28 65.993 105.28 62.143V34.577C105.28 34.0637 105.537 33.807 106.05 33.807H111.902C112.416 33.807 112.672 34.0637 112.672 34.577V60.526C112.672 64.9407 114.418 67.148 117.908 67.148C119.654 67.148 120.988 66.532 121.912 65.3C122.888 64.0167 123.375 62.2713 123.375 60.064V34.577ZM151.761 33.191C155.149 33.191 157.818 34.2947 159.769 36.502C161.719 38.658 162.695 41.6353 162.695 45.434V61.45C162.695 65.0947 161.694 68.0463 159.692 70.305C157.741 72.5123 155.097 73.616 151.761 73.616C150.529 73.616 149.271 73.385 147.988 72.923C146.756 72.461 145.652 71.768 144.677 70.844C144.574 70.7413 144.471 70.7157 144.369 70.767C144.317 70.8183 144.292 70.8953 144.292 70.998V72.23C144.292 72.7433 144.035 73 143.522 73H137.67C137.156 73 136.9 72.7433 136.9 72.23V19.87C136.9 19.3567 137.156 19.1 137.67 19.1H143.522C144.035 19.1 144.292 19.3567 144.292 19.87V35.886C144.292 35.9887 144.343 36.0657 144.446 36.117C144.548 36.117 144.651 36.04 144.754 35.886C146.704 34.0893 149.04 33.191 151.761 33.191ZM155.38 45.896C155.38 44.048 154.841 42.5337 153.763 41.353C152.736 40.1723 151.401 39.582 149.759 39.582C148.167 39.582 146.858 40.1723 145.832 41.353C144.805 42.5337 144.292 44.048 144.292 45.896V60.911C144.292 62.759 144.805 64.2733 145.832 65.454C146.858 66.6347 148.167 67.225 149.759 67.225C151.401 67.225 152.736 66.6347 153.763 65.454C154.841 64.2733 155.38 62.759 155.38 60.911V45.896ZM171.832 27.647C170.394 27.647 169.214 27.185 168.29 26.261C167.366 25.337 166.904 24.1563 166.904 22.719C166.904 21.2817 167.366 20.101 168.29 19.177C169.214 18.253 170.394 17.791 171.832 17.791C173.32 17.791 174.527 18.253 175.451 19.177C176.375 20.101 176.837 21.2817 176.837 22.719C176.837 24.1563 176.349 25.337 175.374 26.261C174.45 27.185 173.269 27.647 171.832 27.647ZM162.13 88.939C161.462 88.939 161.129 88.6823 161.129 88.169V83.318C161.129 82.8047 161.385 82.548 161.899 82.548C166.057 82.4967 168.136 80.0327 168.136 75.156V34.577C168.136 34.0637 168.392 33.807 168.906 33.807H174.758C175.271 33.807 175.528 34.0637 175.528 34.577V75.156C175.528 78.3387 175.194 80.8797 174.527 82.779C173.911 84.7297 172.627 86.244 170.677 87.322C168.726 88.4 165.877 88.939 162.13 88.939ZM207.256 55.675C207.256 56.1883 206.999 56.445 206.486 56.445H189.084C188.879 56.445 188.776 56.5477 188.776 56.753V60.911C188.776 62.759 189.289 64.2733 190.316 65.454C191.343 66.6347 192.677 67.225 194.32 67.225C195.757 67.225 196.964 66.7887 197.939 65.916C198.914 65.0433 199.53 63.914 199.787 62.528C199.941 62.1173 200.223 61.912 200.634 61.912L206.332 62.22C206.589 62.22 206.768 62.297 206.871 62.451C207.025 62.605 207.076 62.7847 207.025 62.99C206.666 66.3267 205.382 68.9447 203.175 70.844C201.019 72.692 198.067 73.616 194.32 73.616C190.367 73.616 187.21 72.5123 184.849 70.305C182.539 68.0977 181.384 65.146 181.384 61.45V45.434C181.384 41.7893 182.539 38.8377 184.849 36.579C187.21 34.3203 190.367 33.191 194.32 33.191C198.324 33.191 201.481 34.3203 203.791 36.579C206.101 38.8377 207.256 41.7893 207.256 45.434V55.675ZM194.32 39.582C192.677 39.582 191.343 40.1723 190.316 41.353C189.289 42.5337 188.776 44.048 188.776 45.896V49.977C188.776 50.1823 188.879 50.285 189.084 50.285H199.633C199.838 50.285 199.941 50.1823 199.941 49.977V45.896C199.941 44.048 199.428 42.5337 198.401 41.353C197.374 40.1723 196.014 39.582 194.32 39.582ZM224.503 73.616C220.551 73.616 217.394 72.5123 215.032 70.305C212.722 68.0977 211.567 65.1203 211.567 61.373V45.434C211.567 41.7893 212.722 38.8377 215.032 36.579C217.394 34.3203 220.551 33.191 224.503 33.191C227.121 33.191 229.406 33.7043 231.356 34.731C233.358 35.7063 234.873 37.0667 235.899 38.812C236.977 40.506 237.516 42.431 237.516 44.587V45.588C237.516 46.1013 237.26 46.358 236.746 46.358L230.894 46.589C230.381 46.589 230.124 46.3323 230.124 45.819V45.049C230.124 43.5603 229.585 42.277 228.507 41.199C227.429 40.121 226.095 39.582 224.503 39.582C222.861 39.582 221.526 40.1723 220.499 41.353C219.473 42.5337 218.959 44.048 218.959 45.896V60.911C218.959 62.759 219.473 64.2733 220.499 65.454C221.526 66.6347 222.861 67.225 224.503 67.225C226.095 67.225 227.429 66.686 228.507 65.608C229.585 64.53 230.124 63.2467 230.124 61.758V60.988C230.124 60.4747 230.381 60.218 230.894 60.218L236.746 60.295C237.26 60.295 237.516 60.5517 237.516 61.065V62.22C237.516 65.5567 236.336 68.303 233.974 70.459C231.613 72.5637 228.456 73.616 224.503 73.616ZM257.165 38.427C257.165 38.9403 256.909 39.197 256.395 39.197H251.005C250.8 39.197 250.697 39.2997 250.697 39.505V61.142C250.697 63.1953 251.057 64.6327 251.775 65.454C252.494 66.224 253.623 66.5833 255.163 66.532H255.856C256.37 66.532 256.626 66.7887 256.626 67.302V72.23C256.626 72.7433 256.37 73 255.856 73H253.469C250.184 73 247.694 72.3583 246 71.075C244.358 69.7917 243.536 67.3533 243.536 63.76V39.505C243.536 39.2997 243.434 39.197 243.228 39.197H240.225C239.712 39.197 239.455 38.9403 239.455 38.427V34.577C239.455 34.0637 239.712 33.807 240.225 33.807H243.228C243.434 33.807 243.536 33.7043 243.536 33.499V24.798C243.536 24.2847 243.793 24.028 244.306 24.028H249.927C250.441 24.028 250.697 24.2847 250.697 24.798V33.499C250.697 33.7043 250.8 33.807 251.005 33.807H256.395C256.909 33.807 257.165 34.0637 257.165 34.577V38.427ZM276.753 33.268C279.987 33.268 282.451 34.3717 284.145 36.579C285.891 38.735 286.763 41.815 286.763 45.819V72.23C286.763 72.7433 286.507 73 285.993 73H280.141C279.628 73 279.371 72.7433 279.371 72.23V46.435C279.371 44.279 278.909 42.6107 277.985 41.43C277.061 40.2493 275.778 39.659 274.135 39.659C272.441 39.659 271.107 40.2493 270.131 41.43C269.207 42.5593 268.694 44.1763 268.591 46.281C268.591 46.589 268.566 46.743 268.514 46.743V72.23C268.514 72.7433 268.258 73 267.744 73H261.892C261.379 73 261.122 72.7433 261.122 72.23V34.577C261.122 34.0637 261.379 33.807 261.892 33.807H267.744C268.258 33.807 268.514 34.0637 268.514 34.577V36.656C268.514 36.7587 268.566 36.8357 268.668 36.887C268.771 36.887 268.874 36.81 268.976 36.656C270.824 34.3973 273.417 33.268 276.753 33.268ZM304.754 73.616C300.75 73.616 297.567 72.5123 295.206 70.305C292.896 68.0463 291.741 65.069 291.741 61.373V45.434C291.741 41.7893 292.921 38.8377 295.283 36.579C297.644 34.3203 300.801 33.191 304.754 33.191C308.758 33.191 311.94 34.3203 314.302 36.579C316.663 38.8377 317.844 41.7893 317.844 45.434V61.373C317.844 65.069 316.663 68.0463 314.302 70.305C311.94 72.5123 308.758 73.616 304.754 73.616ZM304.754 67.148C306.396 67.148 307.757 66.5833 308.835 65.454C309.913 64.2733 310.452 62.7333 310.452 60.834V45.896C310.452 44.048 309.913 42.5337 308.835 41.353C307.757 40.1723 306.396 39.582 304.754 39.582C303.111 39.582 301.751 40.1723 300.673 41.353C299.646 42.5337 299.133 44.048 299.133 45.896V60.834C299.133 62.7333 299.646 64.2733 300.673 65.454C301.751 66.5833 303.111 67.148 304.754 67.148ZM338.466 38.427C338.466 38.9403 338.21 39.197 337.696 39.197H332.306C332.101 39.197 331.998 39.2997 331.998 39.505V61.142C331.998 63.1953 332.358 64.6327 333.076 65.454C333.795 66.224 334.924 66.5833 336.464 66.532H337.157C337.671 66.532 337.927 66.7887 337.927 67.302V72.23C337.927 72.7433 337.671 73 337.157 73H334.77C331.485 73 328.995 72.3583 327.301 71.075C325.659 69.7917 324.837 67.3533 324.837 63.76V39.505C324.837 39.2997 324.735 39.197 324.529 39.197H321.526C321.013 39.197 320.756 38.9403 320.756 38.427V34.577C320.756 34.0637 321.013 33.807 321.526 33.807H324.529C324.735 33.807 324.837 33.7043 324.837 33.499V24.798C324.837 24.2847 325.094 24.028 325.607 24.028H331.228C331.742 24.028 331.998 24.2847 331.998 24.798V33.499C331.998 33.7043 332.101 33.807 332.306 33.807H337.696C338.21 33.807 338.466 34.0637 338.466 34.577V38.427ZM367.602 55.675C367.602 56.1883 367.346 56.445 366.832 56.445H349.43C349.225 56.445 349.122 56.5477 349.122 56.753V60.911C349.122 62.759 349.636 64.2733 350.662 65.454C351.689 66.6347 353.024 67.225 354.666 67.225C356.104 67.225 357.31 66.7887 358.285 65.916C359.261 65.0433 359.877 63.914 360.133 62.528C360.287 62.1173 360.57 61.912 360.98 61.912L366.678 62.22C366.935 62.22 367.115 62.297 367.217 62.451C367.371 62.605 367.423 62.7847 367.371 62.99C367.012 66.3267 365.729 68.9447 363.521 70.844C361.365 72.692 358.414 73.616 354.666 73.616C350.714 73.616 347.557 72.5123 345.195 70.305C342.885 68.0977 341.73 65.146 341.73 61.45V45.434C341.73 41.7893 342.885 38.8377 345.195 36.579C347.557 34.3203 350.714 33.191 354.666 33.191C358.67 33.191 361.827 34.3203 364.137 36.579C366.447 38.8377 367.602 41.7893 367.602 45.434V55.675ZM354.666 39.582C353.024 39.582 351.689 40.1723 350.662 41.353C349.636 42.5337 349.122 44.048 349.122 45.896V49.977C349.122 50.1823 349.225 50.285 349.43 50.285H359.979C360.185 50.285 360.287 50.1823 360.287 49.977V45.896C360.287 44.048 359.774 42.5337 358.747 41.353C357.721 40.1723 356.36 39.582 354.666 39.582ZM383.621 73.462C379.771 73.462 376.717 72.538 374.458 70.69C372.251 68.7907 371.147 66.2497 371.147 63.067V62.374C371.147 61.8607 371.404 61.604 371.917 61.604H377.384C377.898 61.604 378.154 61.8607 378.154 62.374V62.913C378.154 64.299 378.693 65.4797 379.771 66.455C380.849 67.379 382.184 67.841 383.775 67.841C385.315 67.841 386.547 67.379 387.471 66.455C388.447 65.531 388.934 64.3503 388.934 62.913C388.934 61.7837 388.601 60.834 387.933 60.064C387.266 59.294 386.47 58.7037 385.546 58.293C384.674 57.831 383.313 57.215 381.465 56.445C379.463 55.5723 377.795 54.7253 376.46 53.904C375.177 53.0827 374.022 51.902 372.995 50.362C371.969 48.822 371.455 46.8713 371.455 44.51C371.455 41.0193 372.533 38.2987 374.689 36.348C376.897 34.3973 379.848 33.422 383.544 33.422C387.343 33.422 390.32 34.423 392.476 36.425C394.684 38.427 395.787 41.1477 395.787 44.587V44.818C395.787 45.3313 395.531 45.588 395.017 45.588H389.704C389.191 45.588 388.934 45.3313 388.934 44.818V44.279C388.934 42.893 388.447 41.7123 387.471 40.737C386.496 39.7617 385.238 39.274 383.698 39.274C382.107 39.274 380.849 39.7617 379.925 40.737C379.001 41.7123 378.539 42.893 378.539 44.279C378.539 45.357 378.847 46.2553 379.463 46.974C380.079 47.6927 380.824 48.283 381.696 48.745C382.569 49.1557 383.955 49.7717 385.854 50.593C387.959 51.517 389.704 52.4153 391.09 53.288C392.476 54.1093 393.683 55.29 394.709 56.83C395.787 58.37 396.326 60.295 396.326 62.605C396.326 65.9417 395.171 68.5853 392.861 70.536C390.603 72.4867 387.523 73.462 383.621 73.462Z" fill="#045C61"/>
<path d="M14.5686 34.035L14.5572 34.0403C13.395 34.5868 12.8965 35.9707 13.4436 37.1313L33.0562 79.118C33.6032 80.2786 35.7641 82.0435 36.9263 81.497L36.9377 81.4917C38.0998 80.9452 38.5984 79.5614 38.0513 78.4007L18.4248 36.443C17.8776 35.2824 15.7307 33.4885 14.5686 34.035Z" fill="url(#paint0_linear)"/>
<path d="M19.743 41.4067C19.743 35.9616 15.3233 31.5474 9.87149 31.5474C4.41962 31.5474 0 35.9616 0 41.4067V74.1407C0 79.5859 4.41962 84 9.87149 84C15.3233 84 19.743 79.5859 19.743 74.1407V41.4067Z" fill="url(#paint1_linear)"/>
<path d="M51.4809 9.85933C51.4809 4.41418 47.0612 0 41.6094 0C36.1576 0 31.7379 4.41418 31.7379 9.85933V74.128C31.7379 79.5731 36.1576 83.9874 41.6094 83.9874C47.0612 83.9874 51.4809 79.5731 51.4809 74.128V9.85933Z" fill="url(#paint2_linear)"/>
<defs>
<linearGradient id="paint0_linear" x1="13.2767" y1="33.869" x2="38.2043" y2="81.8275" gradientUnits="userSpaceOnUse">
<stop offset="0.228578" stop-color="#045C61" stop-opacity="0.9"/>
<stop offset="0.334934" stop-color="#119AA2"/>
<stop offset="0.582568" stop-color="#119AA2"/>
<stop offset="0.758079" stop-color="#045C61" stop-opacity="0.9"/>
</linearGradient>
<linearGradient id="paint1_linear" x1="9.87149" y1="31.5474" x2="9.87149" y2="84" gradientUnits="userSpaceOnUse">
<stop stop-color="#25C6CF"/>
<stop offset="0.857292" stop-color="#119AA2"/>
</linearGradient>
<linearGradient id="paint2_linear" x1="41.6094" y1="0" x2="41.6094" y2="83.9874" gradientUnits="userSpaceOnUse">
<stop stop-color="#25C6CF"/>
<stop offset="0.810417" stop-color="#119AA2"/>
</linearGradient>
</defs>
</svg>
